<mxfile host="app.diagrams.net" agent="Mozilla/5.0 (Windows NT 10.0; Win64; x64) AppleWebKit/537.36 (KHTML, like Gecko) Chrome/133.0.0.0 Safari/537.36" version="26.0.11">
  <diagram name="Page-1" id="Ym-7CWolg3t1REGG6daP">
    <mxGraphModel dx="1434" dy="824" grid="1" gridSize="10" guides="1" tooltips="1" connect="1" arrows="1" fold="1" page="1" pageScale="1" pageWidth="850" pageHeight="1100" math="0" shadow="0">
      <root>
        <mxCell id="0" />
        <mxCell id="1" parent="0" />
        <mxCell id="5WP1wugaEQEnVHBX-fIG-2" value="" style="rounded=0;whiteSpace=wrap;html=1;" vertex="1" parent="1">
          <mxGeometry x="330" y="100" width="500" height="930" as="geometry" />
        </mxCell>
        <mxCell id="5WP1wugaEQEnVHBX-fIG-3" value="&lt;b&gt;Registration&lt;/b&gt;" style="ellipse;whiteSpace=wrap;html=1;" vertex="1" parent="1">
          <mxGeometry x="395" y="120" width="220" height="40" as="geometry" />
        </mxCell>
        <mxCell id="5WP1wugaEQEnVHBX-fIG-4" value="&lt;b&gt;Students&lt;/b&gt;" style="shape=umlActor;verticalLabelPosition=bottom;verticalAlign=top;html=1;outlineConnect=0;" vertex="1" parent="1">
          <mxGeometry x="190" y="290" width="30" height="60" as="geometry" />
        </mxCell>
        <mxCell id="5WP1wugaEQEnVHBX-fIG-5" value="&lt;b&gt;Faculty&lt;/b&gt;" style="shape=umlActor;verticalLabelPosition=bottom;verticalAlign=top;html=1;outlineConnect=0;" vertex="1" parent="1">
          <mxGeometry x="200" y="640" width="30" height="60" as="geometry" />
        </mxCell>
        <mxCell id="5WP1wugaEQEnVHBX-fIG-6" value="&lt;b&gt;Admin&lt;/b&gt;" style="shape=umlActor;verticalLabelPosition=bottom;verticalAlign=top;html=1;outlineConnect=0;" vertex="1" parent="1">
          <mxGeometry x="930" y="170" width="30" height="60" as="geometry" />
        </mxCell>
        <mxCell id="5WP1wugaEQEnVHBX-fIG-11" value="&lt;b&gt;Logout&lt;/b&gt;" style="ellipse;whiteSpace=wrap;html=1;" vertex="1" parent="1">
          <mxGeometry x="400" y="960" width="390" height="40" as="geometry" />
        </mxCell>
        <mxCell id="5WP1wugaEQEnVHBX-fIG-13" value="&lt;b&gt;Profile Management&lt;/b&gt;" style="ellipse;whiteSpace=wrap;html=1;" vertex="1" parent="1">
          <mxGeometry x="395" y="310" width="220" height="40" as="geometry" />
        </mxCell>
        <mxCell id="5WP1wugaEQEnVHBX-fIG-14" value="Code Review" style="ellipse;whiteSpace=wrap;html=1;" vertex="1" parent="1">
          <mxGeometry x="672.5" y="690" width="87.5" height="40" as="geometry" />
        </mxCell>
        <mxCell id="5WP1wugaEQEnVHBX-fIG-15" value="&lt;b&gt;Faculty Dashboard&lt;/b&gt;" style="ellipse;whiteSpace=wrap;html=1;" vertex="1" parent="1">
          <mxGeometry x="407.5" y="800" width="145" height="40" as="geometry" />
        </mxCell>
        <mxCell id="5WP1wugaEQEnVHBX-fIG-16" value="Set Test Cases" style="ellipse;whiteSpace=wrap;html=1;" vertex="1" parent="1">
          <mxGeometry x="665" y="880" width="110" height="40" as="geometry" />
        </mxCell>
        <mxCell id="5WP1wugaEQEnVHBX-fIG-17" value="&lt;b&gt;Add Faculty&lt;/b&gt;" style="ellipse;whiteSpace=wrap;html=1;" vertex="1" parent="1">
          <mxGeometry x="395" y="180" width="220" height="40" as="geometry" />
        </mxCell>
        <mxCell id="5WP1wugaEQEnVHBX-fIG-18" value="&lt;b&gt;Login&lt;/b&gt;" style="ellipse;whiteSpace=wrap;html=1;" vertex="1" parent="1">
          <mxGeometry x="395" y="240" width="85" height="40" as="geometry" />
        </mxCell>
        <mxCell id="5WP1wugaEQEnVHBX-fIG-19" value="Reset Password" style="ellipse;whiteSpace=wrap;html=1;" vertex="1" parent="1">
          <mxGeometry x="560" y="240" width="110" height="40" as="geometry" />
        </mxCell>
        <mxCell id="5WP1wugaEQEnVHBX-fIG-20" value="&lt;b&gt;Select Language&lt;/b&gt;" style="ellipse;whiteSpace=wrap;html=1;" vertex="1" parent="1">
          <mxGeometry x="395" y="380" width="110" height="40" as="geometry" />
        </mxCell>
        <mxCell id="5WP1wugaEQEnVHBX-fIG-21" value="Code Editor" style="ellipse;whiteSpace=wrap;html=1;" vertex="1" parent="1">
          <mxGeometry x="635" y="380" width="125" height="40" as="geometry" />
        </mxCell>
        <mxCell id="5WP1wugaEQEnVHBX-fIG-22" value="Output Validation" style="ellipse;whiteSpace=wrap;html=1;" vertex="1" parent="1">
          <mxGeometry x="500" y="540" width="125" height="40" as="geometry" />
        </mxCell>
        <mxCell id="5WP1wugaEQEnVHBX-fIG-23" value="Run Code" style="ellipse;whiteSpace=wrap;html=1;" vertex="1" parent="1">
          <mxGeometry x="642.5" y="460" width="110" height="40" as="geometry" />
        </mxCell>
        <mxCell id="5WP1wugaEQEnVHBX-fIG-24" value="Code Submission" style="ellipse;whiteSpace=wrap;html=1;" vertex="1" parent="1">
          <mxGeometry x="500" y="460" width="125" height="40" as="geometry" />
        </mxCell>
        <mxCell id="5WP1wugaEQEnVHBX-fIG-25" value="&lt;b&gt;Add Comments&lt;/b&gt;" style="ellipse;whiteSpace=wrap;html=1;" vertex="1" parent="1">
          <mxGeometry x="395" y="610" width="220" height="40" as="geometry" />
        </mxCell>
        <mxCell id="5WP1wugaEQEnVHBX-fIG-26" value="&lt;b&gt;Leaderboard&lt;/b&gt;" style="ellipse;whiteSpace=wrap;html=1;" vertex="1" parent="1">
          <mxGeometry x="395" y="670" width="220" height="40" as="geometry" />
        </mxCell>
        <mxCell id="5WP1wugaEQEnVHBX-fIG-27" value="&lt;b&gt;Provide Rating&lt;/b&gt;" style="ellipse;whiteSpace=wrap;html=1;" vertex="1" parent="1">
          <mxGeometry x="395" y="730" width="220" height="40" as="geometry" />
        </mxCell>
        <mxCell id="5WP1wugaEQEnVHBX-fIG-28" value="&lt;b&gt;Create Problem Statements&lt;/b&gt;" style="ellipse;whiteSpace=wrap;html=1;" vertex="1" parent="1">
          <mxGeometry x="395" y="880" width="170" height="40" as="geometry" />
        </mxCell>
        <mxCell id="5WP1wugaEQEnVHBX-fIG-29" value="View Problems" style="ellipse;whiteSpace=wrap;html=1;" vertex="1" parent="1">
          <mxGeometry x="660" y="800" width="115" height="40" as="geometry" />
        </mxCell>
        <mxCell id="5WP1wugaEQEnVHBX-fIG-31" value="&amp;lt;&amp;lt;extends&amp;gt;&amp;gt;" style="endArrow=open;endSize=12;dashed=1;html=1;rounded=0;entryX=0;entryY=0.5;entryDx=0;entryDy=0;exitX=1;exitY=0.5;exitDx=0;exitDy=0;" edge="1" parent="1" source="5WP1wugaEQEnVHBX-fIG-18" target="5WP1wugaEQEnVHBX-fIG-19">
          <mxGeometry width="160" relative="1" as="geometry">
            <mxPoint x="610" y="320" as="sourcePoint" />
            <mxPoint x="770" y="320" as="targetPoint" />
          </mxGeometry>
        </mxCell>
        <mxCell id="5WP1wugaEQEnVHBX-fIG-32" value="&amp;lt;&amp;lt;include&amp;gt;&amp;gt;" style="endArrow=open;endSize=12;dashed=1;html=1;rounded=0;entryX=0;entryY=0.5;entryDx=0;entryDy=0;exitX=1;exitY=0.5;exitDx=0;exitDy=0;" edge="1" parent="1" source="5WP1wugaEQEnVHBX-fIG-20" target="5WP1wugaEQEnVHBX-fIG-21">
          <mxGeometry width="160" relative="1" as="geometry">
            <mxPoint x="510" y="450" as="sourcePoint" />
            <mxPoint x="670" y="450" as="targetPoint" />
          </mxGeometry>
        </mxCell>
        <mxCell id="5WP1wugaEQEnVHBX-fIG-33" value="&amp;lt;&amp;lt;include&amp;gt;&amp;gt;" style="endArrow=open;endSize=12;dashed=1;html=1;rounded=0;entryX=0.5;entryY=1;entryDx=0;entryDy=0;exitX=0.5;exitY=0;exitDx=0;exitDy=0;" edge="1" parent="1" source="5WP1wugaEQEnVHBX-fIG-23" target="5WP1wugaEQEnVHBX-fIG-21">
          <mxGeometry width="160" relative="1" as="geometry">
            <mxPoint x="570" y="540" as="sourcePoint" />
            <mxPoint x="730" y="540" as="targetPoint" />
          </mxGeometry>
        </mxCell>
        <mxCell id="5WP1wugaEQEnVHBX-fIG-34" value="&amp;lt;&amp;lt;include&amp;gt;&amp;gt;" style="endArrow=open;endSize=12;dashed=1;html=1;rounded=0;exitX=1;exitY=0;exitDx=0;exitDy=0;entryX=0;entryY=1;entryDx=0;entryDy=0;" edge="1" parent="1" source="5WP1wugaEQEnVHBX-fIG-24" target="5WP1wugaEQEnVHBX-fIG-21">
          <mxGeometry width="160" relative="1" as="geometry">
            <mxPoint x="720" y="360" as="sourcePoint" />
            <mxPoint x="698" y="380" as="targetPoint" />
          </mxGeometry>
        </mxCell>
        <mxCell id="5WP1wugaEQEnVHBX-fIG-35" value="&amp;lt;&amp;lt;extends&amp;gt;&amp;gt;" style="endArrow=open;endSize=12;dashed=1;html=1;rounded=0;exitX=0.5;exitY=1;exitDx=0;exitDy=0;entryX=0.5;entryY=0;entryDx=0;entryDy=0;" edge="1" parent="1" source="5WP1wugaEQEnVHBX-fIG-24" target="5WP1wugaEQEnVHBX-fIG-22">
          <mxGeometry width="160" relative="1" as="geometry">
            <mxPoint x="460" y="520" as="sourcePoint" />
            <mxPoint x="620" y="520" as="targetPoint" />
          </mxGeometry>
        </mxCell>
        <mxCell id="5WP1wugaEQEnVHBX-fIG-36" value="&amp;lt;&amp;lt;include&amp;gt;&amp;gt;" style="endArrow=open;endSize=12;dashed=1;html=1;rounded=0;entryX=1;entryY=0.5;entryDx=0;entryDy=0;exitX=0;exitY=0.5;exitDx=0;exitDy=0;" edge="1" parent="1" source="5WP1wugaEQEnVHBX-fIG-16" target="5WP1wugaEQEnVHBX-fIG-28">
          <mxGeometry width="160" relative="1" as="geometry">
            <mxPoint x="570" y="860" as="sourcePoint" />
            <mxPoint x="730" y="860" as="targetPoint" />
          </mxGeometry>
        </mxCell>
        <mxCell id="5WP1wugaEQEnVHBX-fIG-37" value="&amp;lt;&amp;lt;extends&amp;gt;&amp;gt;" style="endArrow=open;endSize=12;dashed=1;html=1;rounded=0;entryX=0.5;entryY=0;entryDx=0;entryDy=0;exitX=0.5;exitY=1;exitDx=0;exitDy=0;" edge="1" parent="1" source="5WP1wugaEQEnVHBX-fIG-15" target="5WP1wugaEQEnVHBX-fIG-28">
          <mxGeometry width="160" relative="1" as="geometry">
            <mxPoint x="490" y="950" as="sourcePoint" />
            <mxPoint x="720" y="890" as="targetPoint" />
          </mxGeometry>
        </mxCell>
        <mxCell id="5WP1wugaEQEnVHBX-fIG-38" value="&amp;lt;&amp;lt;extends&amp;gt;&amp;gt;" style="endArrow=open;endSize=12;dashed=1;html=1;rounded=0;entryX=0;entryY=0.5;entryDx=0;entryDy=0;exitX=1;exitY=0.5;exitDx=0;exitDy=0;" edge="1" parent="1" source="5WP1wugaEQEnVHBX-fIG-15" target="5WP1wugaEQEnVHBX-fIG-29">
          <mxGeometry width="160" relative="1" as="geometry">
            <mxPoint x="550" y="860" as="sourcePoint" />
            <mxPoint x="710" y="860" as="targetPoint" />
          </mxGeometry>
        </mxCell>
        <mxCell id="5WP1wugaEQEnVHBX-fIG-39" value="&amp;lt;&amp;lt;extends&amp;gt;&amp;gt;" style="endArrow=open;endSize=12;dashed=1;html=1;rounded=0;entryX=0.5;entryY=1;entryDx=0;entryDy=0;exitX=0.5;exitY=0;exitDx=0;exitDy=0;" edge="1" parent="1" source="5WP1wugaEQEnVHBX-fIG-29" target="5WP1wugaEQEnVHBX-fIG-14">
          <mxGeometry width="160" relative="1" as="geometry">
            <mxPoint x="650" y="760" as="sourcePoint" />
            <mxPoint x="810" y="760" as="targetPoint" />
          </mxGeometry>
        </mxCell>
        <mxCell id="5WP1wugaEQEnVHBX-fIG-40" value="" style="endArrow=none;html=1;rounded=0;entryX=0;entryY=0.5;entryDx=0;entryDy=0;exitX=1;exitY=0.3333333333333333;exitDx=0;exitDy=0;exitPerimeter=0;" edge="1" parent="1" source="5WP1wugaEQEnVHBX-fIG-4" target="5WP1wugaEQEnVHBX-fIG-3">
          <mxGeometry width="50" height="50" relative="1" as="geometry">
            <mxPoint x="200" y="260" as="sourcePoint" />
            <mxPoint x="250" y="210" as="targetPoint" />
          </mxGeometry>
        </mxCell>
        <mxCell id="5WP1wugaEQEnVHBX-fIG-41" value="" style="endArrow=none;html=1;rounded=0;exitX=1;exitY=0.5;exitDx=0;exitDy=0;entryX=0;entryY=0.3333333333333333;entryDx=0;entryDy=0;entryPerimeter=0;" edge="1" parent="1" source="5WP1wugaEQEnVHBX-fIG-17" target="5WP1wugaEQEnVHBX-fIG-6">
          <mxGeometry width="50" height="50" relative="1" as="geometry">
            <mxPoint x="870" y="250" as="sourcePoint" />
            <mxPoint x="920" y="200" as="targetPoint" />
          </mxGeometry>
        </mxCell>
        <mxCell id="5WP1wugaEQEnVHBX-fIG-43" value="" style="endArrow=none;html=1;rounded=0;entryX=0;entryY=0.5;entryDx=0;entryDy=0;exitX=1;exitY=0.3333333333333333;exitDx=0;exitDy=0;exitPerimeter=0;" edge="1" parent="1" source="5WP1wugaEQEnVHBX-fIG-4" target="5WP1wugaEQEnVHBX-fIG-18">
          <mxGeometry width="50" height="50" relative="1" as="geometry">
            <mxPoint x="220" y="480" as="sourcePoint" />
            <mxPoint x="270" y="430" as="targetPoint" />
          </mxGeometry>
        </mxCell>
        <mxCell id="5WP1wugaEQEnVHBX-fIG-44" value="" style="endArrow=none;html=1;rounded=0;exitX=1;exitY=0;exitDx=0;exitDy=0;" edge="1" parent="1" source="5WP1wugaEQEnVHBX-fIG-18">
          <mxGeometry width="50" height="50" relative="1" as="geometry">
            <mxPoint x="860" y="360" as="sourcePoint" />
            <mxPoint x="930" y="190" as="targetPoint" />
          </mxGeometry>
        </mxCell>
        <mxCell id="5WP1wugaEQEnVHBX-fIG-45" value="" style="endArrow=none;html=1;rounded=0;entryX=0;entryY=0.5;entryDx=0;entryDy=0;exitX=1;exitY=0.3333333333333333;exitDx=0;exitDy=0;exitPerimeter=0;" edge="1" parent="1" source="5WP1wugaEQEnVHBX-fIG-5" target="5WP1wugaEQEnVHBX-fIG-18">
          <mxGeometry width="50" height="50" relative="1" as="geometry">
            <mxPoint x="240" y="510" as="sourcePoint" />
            <mxPoint x="290" y="460" as="targetPoint" />
          </mxGeometry>
        </mxCell>
        <mxCell id="5WP1wugaEQEnVHBX-fIG-46" value="" style="endArrow=none;html=1;rounded=0;entryX=0;entryY=0.5;entryDx=0;entryDy=0;exitX=1;exitY=0.3333333333333333;exitDx=0;exitDy=0;exitPerimeter=0;" edge="1" parent="1" source="5WP1wugaEQEnVHBX-fIG-4" target="5WP1wugaEQEnVHBX-fIG-13">
          <mxGeometry width="50" height="50" relative="1" as="geometry">
            <mxPoint x="230" y="470" as="sourcePoint" />
            <mxPoint x="280" y="420" as="targetPoint" />
          </mxGeometry>
        </mxCell>
        <mxCell id="5WP1wugaEQEnVHBX-fIG-47" value="" style="endArrow=none;html=1;rounded=0;entryX=0;entryY=0.5;entryDx=0;entryDy=0;exitX=1;exitY=0.3333333333333333;exitDx=0;exitDy=0;exitPerimeter=0;" edge="1" parent="1" source="5WP1wugaEQEnVHBX-fIG-5" target="5WP1wugaEQEnVHBX-fIG-13">
          <mxGeometry width="50" height="50" relative="1" as="geometry">
            <mxPoint x="220" y="520" as="sourcePoint" />
            <mxPoint x="270" y="470" as="targetPoint" />
          </mxGeometry>
        </mxCell>
        <mxCell id="5WP1wugaEQEnVHBX-fIG-48" value="" style="endArrow=none;html=1;rounded=0;entryX=0;entryY=0.3333333333333333;entryDx=0;entryDy=0;entryPerimeter=0;exitX=1;exitY=0.5;exitDx=0;exitDy=0;" edge="1" parent="1" source="5WP1wugaEQEnVHBX-fIG-13" target="5WP1wugaEQEnVHBX-fIG-6">
          <mxGeometry width="50" height="50" relative="1" as="geometry">
            <mxPoint x="800" y="290" as="sourcePoint" />
            <mxPoint x="850" y="240" as="targetPoint" />
          </mxGeometry>
        </mxCell>
        <mxCell id="5WP1wugaEQEnVHBX-fIG-51" value="" style="endArrow=none;html=1;rounded=0;entryX=0;entryY=0.5;entryDx=0;entryDy=0;exitX=1;exitY=0.3333333333333333;exitDx=0;exitDy=0;exitPerimeter=0;" edge="1" parent="1" source="5WP1wugaEQEnVHBX-fIG-5" target="5WP1wugaEQEnVHBX-fIG-20">
          <mxGeometry width="50" height="50" relative="1" as="geometry">
            <mxPoint x="220" y="610" as="sourcePoint" />
            <mxPoint x="220" y="420" as="targetPoint" />
          </mxGeometry>
        </mxCell>
        <mxCell id="5WP1wugaEQEnVHBX-fIG-52" value="" style="endArrow=none;html=1;rounded=0;entryX=0;entryY=0.5;entryDx=0;entryDy=0;exitX=1;exitY=0.3333333333333333;exitDx=0;exitDy=0;exitPerimeter=0;" edge="1" parent="1" source="5WP1wugaEQEnVHBX-fIG-4" target="5WP1wugaEQEnVHBX-fIG-20">
          <mxGeometry width="50" height="50" relative="1" as="geometry">
            <mxPoint x="180" y="480" as="sourcePoint" />
            <mxPoint x="230" y="430" as="targetPoint" />
          </mxGeometry>
        </mxCell>
        <mxCell id="5WP1wugaEQEnVHBX-fIG-54" value="" style="endArrow=none;html=1;rounded=0;entryX=0;entryY=0.5;entryDx=0;entryDy=0;exitX=1;exitY=0.3333333333333333;exitDx=0;exitDy=0;exitPerimeter=0;" edge="1" parent="1" source="5WP1wugaEQEnVHBX-fIG-4" target="5WP1wugaEQEnVHBX-fIG-25">
          <mxGeometry width="50" height="50" relative="1" as="geometry">
            <mxPoint x="230" y="310" as="sourcePoint" />
            <mxPoint x="220" y="450" as="targetPoint" />
          </mxGeometry>
        </mxCell>
        <mxCell id="5WP1wugaEQEnVHBX-fIG-55" value="" style="endArrow=none;html=1;rounded=0;entryX=0;entryY=0.5;entryDx=0;entryDy=0;exitX=1;exitY=0.3333333333333333;exitDx=0;exitDy=0;exitPerimeter=0;" edge="1" parent="1" source="5WP1wugaEQEnVHBX-fIG-5" target="5WP1wugaEQEnVHBX-fIG-25">
          <mxGeometry width="50" height="50" relative="1" as="geometry">
            <mxPoint x="90" y="570" as="sourcePoint" />
            <mxPoint x="140" y="520" as="targetPoint" />
          </mxGeometry>
        </mxCell>
        <mxCell id="5WP1wugaEQEnVHBX-fIG-56" value="" style="endArrow=none;html=1;rounded=0;exitX=1;exitY=0.3333333333333333;exitDx=0;exitDy=0;exitPerimeter=0;entryX=0;entryY=0.5;entryDx=0;entryDy=0;" edge="1" parent="1" source="5WP1wugaEQEnVHBX-fIG-4" target="5WP1wugaEQEnVHBX-fIG-26">
          <mxGeometry width="50" height="50" relative="1" as="geometry">
            <mxPoint x="130" y="530" as="sourcePoint" />
            <mxPoint x="180" y="480" as="targetPoint" />
          </mxGeometry>
        </mxCell>
        <mxCell id="5WP1wugaEQEnVHBX-fIG-57" value="" style="endArrow=none;html=1;rounded=0;entryX=0;entryY=0.5;entryDx=0;entryDy=0;exitX=1;exitY=0.3333333333333333;exitDx=0;exitDy=0;exitPerimeter=0;" edge="1" parent="1" source="5WP1wugaEQEnVHBX-fIG-5" target="5WP1wugaEQEnVHBX-fIG-27">
          <mxGeometry width="50" height="50" relative="1" as="geometry">
            <mxPoint x="210" y="840" as="sourcePoint" />
            <mxPoint x="260" y="790" as="targetPoint" />
          </mxGeometry>
        </mxCell>
        <mxCell id="5WP1wugaEQEnVHBX-fIG-58" style="edgeStyle=orthogonalEdgeStyle;rounded=0;orthogonalLoop=1;jettySize=auto;html=1;exitX=0.5;exitY=1;exitDx=0;exitDy=0;" edge="1" parent="1" source="5WP1wugaEQEnVHBX-fIG-14" target="5WP1wugaEQEnVHBX-fIG-14">
          <mxGeometry relative="1" as="geometry" />
        </mxCell>
        <mxCell id="5WP1wugaEQEnVHBX-fIG-59" value="" style="endArrow=none;html=1;rounded=0;entryX=0;entryY=0.5;entryDx=0;entryDy=0;exitX=1;exitY=0.3333333333333333;exitDx=0;exitDy=0;exitPerimeter=0;" edge="1" parent="1" source="5WP1wugaEQEnVHBX-fIG-5" target="5WP1wugaEQEnVHBX-fIG-15">
          <mxGeometry width="50" height="50" relative="1" as="geometry">
            <mxPoint x="260" y="840" as="sourcePoint" />
            <mxPoint x="310" y="790" as="targetPoint" />
          </mxGeometry>
        </mxCell>
        <mxCell id="5WP1wugaEQEnVHBX-fIG-60" value="" style="endArrow=none;html=1;rounded=0;entryX=0;entryY=0.5;entryDx=0;entryDy=0;exitX=1;exitY=0.3333333333333333;exitDx=0;exitDy=0;exitPerimeter=0;" edge="1" parent="1" source="5WP1wugaEQEnVHBX-fIG-5" target="5WP1wugaEQEnVHBX-fIG-11">
          <mxGeometry width="50" height="50" relative="1" as="geometry">
            <mxPoint x="240" y="910" as="sourcePoint" />
            <mxPoint x="290" y="860" as="targetPoint" />
          </mxGeometry>
        </mxCell>
        <mxCell id="5WP1wugaEQEnVHBX-fIG-61" value="" style="endArrow=none;html=1;rounded=0;entryX=0;entryY=0.5;entryDx=0;entryDy=0;exitX=1;exitY=0.3333333333333333;exitDx=0;exitDy=0;exitPerimeter=0;" edge="1" parent="1" source="5WP1wugaEQEnVHBX-fIG-4" target="5WP1wugaEQEnVHBX-fIG-11">
          <mxGeometry width="50" height="50" relative="1" as="geometry">
            <mxPoint x="150" y="590" as="sourcePoint" />
            <mxPoint x="200" y="540" as="targetPoint" />
          </mxGeometry>
        </mxCell>
        <mxCell id="5WP1wugaEQEnVHBX-fIG-62" value="" style="endArrow=none;html=1;rounded=0;entryX=0;entryY=0.3333333333333333;entryDx=0;entryDy=0;entryPerimeter=0;exitX=1;exitY=0.5;exitDx=0;exitDy=0;" edge="1" parent="1" source="5WP1wugaEQEnVHBX-fIG-11" target="5WP1wugaEQEnVHBX-fIG-6">
          <mxGeometry width="50" height="50" relative="1" as="geometry">
            <mxPoint x="880" y="430" as="sourcePoint" />
            <mxPoint x="930" y="380" as="targetPoint" />
          </mxGeometry>
        </mxCell>
      </root>
    </mxGraphModel>
  </diagram>
</mxfile>
